PathFileType	4	(X/Y/Z)	D:\TRACE\v60_Jaco2_6-2-23\JustBodyDRS_Motion2_4-platform.trc
DataRate	CameraRate	NumFrames	NumMarkers	Units	OrigDataRate	OrigDataStartFrame	OrigNumFrames
100.00	100.00	      24	5	mm	100.00	3461	      6921
Frame#	Time	Left_Front			Right_Front			Left_Aft			Right_Aft			Post			
		X1	Y1	Z1	X2	Y2	Z2	X3	Y3	Z3	X4	Y4	Z4	X5	Y5	Z5	

3461	34.600	-765.67993	19.86735	-636.52850	804.24054	21.09917	-641.63348	-674.03827	0.14074	498.41425	768.14331	-0.97693	508.10892	20.16846	1324.09924	-937.88654	
3462	34.610	-764.57684	21.36905	-636.17505	805.35040	22.62339	-641.30408	-673.02368	-0.93949	498.71481	769.24591	-2.15646	508.25211	21.48343	1326.24219	-933.62006	
3463	34.620	-763.80914	22.72638	-635.67957	806.31610	24.08875	-640.87524	-672.17700	-2.07382	499.16995	770.12524	-3.37261	508.59659	22.08088	1328.56592	-930.28455	
3464	34.630	-762.83185	24.31063	-635.52649	806.94427	25.73889	-640.55573	-671.18665	-3.20027	499.33734	770.95068	-4.35158	508.76929	23.25139	1330.81653	-927.09253	
3465	34.640	-762.01300	25.73237	-635.02490	808.05682	27.26243	-640.00995	-670.44781	-4.27435	499.63904	772.29919	-5.26114	509.64642	24.17777	1333.10095	-923.62457	
3466	34.650	-761.05432	27.39321	-634.53320	808.81982	28.96491	-639.53442	-669.66663	-5.32886	500.09631	772.73267	-6.58109	509.69489	25.15228	1335.05298	-920.46155	
3467	34.660	-759.95367	28.54259	-633.91547	809.53888	30.38709	-639.41162	-668.66925	-6.45249	500.48291	773.26355	-7.98375	509.92773	25.70173	1337.24097	-917.68121	
3468	34.670	-759.14752	29.85217	-633.97577	810.30035	31.71632	-638.80963	-667.72363	-7.38102	500.80450	773.88184	-9.30307	510.12216	26.59336	1339.46570	-914.75787	
3469	34.680	-758.44061	31.41422	-633.69806	811.14575	33.11024	-638.48596	-666.99988	-8.44740	501.13870	774.45459	-10.39118	510.27356	27.31669	1341.51599	-911.77667	
3470	34.690	-757.72327	32.83907	-633.17133	811.91571	34.48550	-638.07782	-666.42194	-9.15885	501.31863	774.70404	-11.64459	510.63162	28.19048	1343.67773	-908.43500	
3471	34.700	-756.92792	34.15602	-632.50116	812.69885	36.10878	-637.52850	-665.56342	-10.35575	501.93457	774.78851	-13.18615	510.46622	28.53956	1345.79626	-904.92029	
3472	34.710	-756.33746	35.97040	-632.03607	813.25128	37.92696	-637.12708	-665.01837	-11.61658	502.20053	776.05585	-14.29123	510.98318	30.07822	1347.89746	-901.34015	
3473	34.720	-755.63208	37.37838	-631.64783	814.09381	39.04109	-636.89221	-664.39417	-12.54180	502.38281	776.77032	-15.22699	511.33768	29.85749	1350.07971	-897.75873	
3474	34.730	-755.07367	38.35378	-630.81775	814.74286	40.57952	-636.32953	-663.93134	-13.16731	502.43018	779.43781	-14.54720	513.56744	30.61654	1351.93689	-893.94598	
3475	34.740	-754.54755	40.02775	-631.02234	815.32941	42.10431	-636.01282	-662.67725	-14.83086	503.18307	780.08972	-15.81706	513.13647	31.68661	1354.04492	-889.74652	
3476	34.750	-754.18567	42.11304	-630.43030	815.89612	43.22326	-635.59113	-662.09381	-15.85132	503.23468	780.64349	-17.03187	513.16833	32.33980	1355.64331	-885.93976	
3477	34.760	-753.57440	43.28777	-629.76843	816.38464	44.70008	-635.10278	-661.63092	-16.40527	503.48032	780.95612	-18.13454	513.46533	32.56065	1357.29248	-882.82562	
3478	34.770	-752.78809	44.84538	-629.75098	816.98553	45.75251	-634.82428	-660.96313	-17.50522	503.83881	781.08765	-18.97644	513.65552	33.02584	1359.05017	-880.30524	
3479	34.780	-752.32172	45.91476	-629.31183	817.54102	47.08334	-634.48682	-660.62909	-18.45207	503.93921	781.24762	-20.02696	513.07086	33.84325	1360.71436	-877.73663	
3480	34.790	-751.94501	46.80110	-629.00409	817.99237	48.28769	-634.13263	-660.12128	-19.27493	504.26907	781.98639	-20.92932	513.16534	34.30824	1362.29590	-875.53784	
3481	34.800	-751.49951	48.45243	-628.87543	818.41614	49.40432	-633.75085	-659.73041	-20.04429	504.37979	782.65283	-21.77857	513.63904	34.64268	1364.10974	-874.22668	
3482	34.810	-751.25348	49.56026	-628.43829	818.88074	50.55075	-633.37787	-659.22461	-20.98972	504.77985	782.70123	-22.74729	513.82727	35.45669	1365.72070	-872.24933	
3483	34.820	-750.98083	50.88037	-627.90027	819.00140	51.78494	-632.99237	-658.92188	-21.77981	505.18607	783.00922	-23.68805	513.99213	35.85964	1367.41455	-869.99261	
3484	34.830	-750.66943	51.79123	-627.69208	819.37457	53.32138	-632.64539	-658.70325	-22.70212	505.25708	783.32227	-24.75122	514.14905	36.25147	1369.18689	-867.86920	
